<svg xmlns="http://www.w3.org/2000/svg" width="32" height="32" viewBox="0 0 32 32"><title>search</title><g fill="#212121" class="nc-icon-wrapper"><path d="M28.933 27.733L24 22.8c1.6-2 2.667-4.667 2.667-7.467 0-6.666-5.334-12-12-12s-12 5.334-12 12c0 6.667 5.333 12 12 12 2.8 0 5.466-.933 7.466-2.666l4.934 4.933c.266.267.666.4.933.4s.667-.133.933-.4a1.289 1.289 0 0 0 0-1.867zm-23.6-12.4c0-5.2 4.134-9.333 9.334-9.333S24 10.133 24 15.333c0 2.534-1.067 4.934-2.667 6.534-1.733 1.733-4 2.666-6.533 2.666-5.333.134-9.467-4-9.467-9.2z" fill="#212121"></path></g></svg>